<svg width="86" height="85" viewBox="0 0 86 85" fill="none" xmlns="http://www.w3.org/2000/svg">
<path d="M3.46838 72.544H0.472375V71.452H7.64038V72.544H4.64438V81H3.46838V72.544ZM7.12828 73.958H8.36028L10.0683 78.928L10.3763 80.034H10.3903L10.7123 78.928L12.5323 73.958H13.7083L10.9783 81H9.71828L7.12828 73.958ZM21.8531 75.106C21.4611 74.9847 21.1111 74.9053 20.8031 74.868C20.5044 74.8213 20.2291 74.798 19.9771 74.798C19.6504 74.798 19.3751 74.8773 19.1511 75.036C18.9364 75.1947 18.8291 75.4 18.8291 75.652C18.8384 75.876 18.9364 76.0673 19.1231 76.226C19.3098 76.3847 19.5244 76.5293 19.7671 76.66C20.0191 76.7813 20.2944 76.9167 20.5931 77.066C20.9011 77.2153 21.1858 77.3833 21.4471 77.57C21.7178 77.7567 21.9371 77.9807 22.1051 78.242C22.2731 78.5033 22.3618 78.816 22.3711 79.18C22.3618 79.572 22.2731 79.8987 22.1051 80.16C21.9464 80.412 21.7364 80.6173 21.4751 80.776C21.2231 80.9253 20.9478 81.028 20.6491 81.084C20.3504 81.1493 20.0704 81.182 19.8091 81.182C19.4731 81.182 19.1231 81.1633 18.7591 81.126C18.4044 81.0887 18.0218 81.0093 17.6111 80.888L17.8211 79.88C18.2411 79.992 18.6238 80.076 18.9691 80.132C19.3144 80.1787 19.5991 80.202 19.8231 80.202C19.9911 80.202 20.1544 80.1833 20.3131 80.146C20.4811 80.1087 20.6304 80.0573 20.7611 79.992C20.8918 79.9173 20.9944 79.824 21.0691 79.712C21.1531 79.6 21.1951 79.474 21.1951 79.334C21.1858 79.0727 21.0971 78.8533 20.9291 78.676C20.7611 78.4893 20.5418 78.326 20.2711 78.186C20.0098 78.0367 19.7251 77.892 19.4171 77.752C19.1184 77.6027 18.8338 77.4347 18.5631 77.248C18.3018 77.052 18.0824 76.8233 17.9051 76.562C17.7278 76.2913 17.6391 75.96 17.6391 75.568C17.6391 75.288 17.7091 75.0407 17.8491 74.826C17.9984 74.602 18.1851 74.42 18.4091 74.28C18.6424 74.1307 18.8944 74.0187 19.1651 73.944C19.4451 73.86 19.7158 73.818 19.9771 73.818C20.2478 73.818 20.5511 73.8413 20.8871 73.888C21.2231 73.9253 21.6104 74 22.0491 74.112L21.8531 75.106ZM25.521 71.858V73.958H27.551V74.868H25.521V78.606C25.521 78.914 25.5257 79.1707 25.535 79.376C25.5537 79.5813 25.5863 79.7447 25.633 79.866C25.6797 79.9873 25.745 80.076 25.829 80.132C25.913 80.1787 26.0203 80.202 26.151 80.202C26.5057 80.1927 26.9163 80.062 27.383 79.81L27.719 80.664C27.411 80.8693 27.1217 81.0047 26.851 81.07C26.5897 81.1447 26.3283 81.182 26.067 81.182C25.451 81.182 25.017 81.0093 24.765 80.664C24.5223 80.3093 24.401 79.726 24.401 78.914V74.868H23.113V73.958H24.401V71.998L25.521 71.858ZM29.7259 77.514C29.7259 78.4193 29.9266 79.096 30.3279 79.544C30.7386 79.9827 31.2893 80.202 31.9799 80.202C32.6613 80.202 33.1933 79.9827 33.5759 79.544C33.9586 79.1053 34.1499 78.4473 34.1499 77.57C34.1499 76.6367 33.9446 75.9413 33.5339 75.484C33.1326 75.0267 32.5819 74.798 31.8819 74.798C31.1819 74.798 30.6453 75.0267 30.2719 75.484C29.9079 75.932 29.7259 76.6087 29.7259 77.514ZM28.5359 77.5C28.5359 76.7907 28.6479 76.2027 28.8719 75.736C29.0959 75.26 29.3806 74.882 29.7259 74.602C30.0713 74.3127 30.4399 74.112 30.8319 74C31.2333 73.8787 31.6113 73.818 31.9659 73.818C32.3019 73.818 32.6659 73.874 33.0579 73.986C33.4593 74.0887 33.8279 74.28 34.1639 74.56C34.4999 74.8307 34.7799 75.1993 35.0039 75.666C35.2279 76.1233 35.3399 76.7067 35.3399 77.416C35.3399 78.1533 35.2233 78.7647 34.9899 79.25C34.7659 79.7353 34.4813 80.1227 34.1359 80.412C33.7906 80.692 33.4173 80.888 33.0159 81C32.6146 81.1213 32.2413 81.182 31.8959 81.182C31.5413 81.182 31.1679 81.126 30.7759 81.014C30.3839 80.902 30.0199 80.7107 29.6839 80.44C29.3573 80.16 29.0819 79.782 28.8579 79.306C28.6433 78.83 28.5359 78.228 28.5359 77.5ZM36.981 75.092C36.981 74.8773 36.9577 74.5413 36.911 74.084L37.947 73.944L38.059 74.966H38.073C38.241 74.7513 38.4043 74.5647 38.563 74.406C38.7217 74.2473 38.885 74.112 39.053 74C39.2303 73.8787 39.3983 73.818 39.557 73.818C39.7717 73.8087 40.0703 73.832 40.453 73.888L40.201 74.966C39.893 74.91 39.6783 74.8867 39.557 74.896C39.3983 74.896 39.2303 74.9707 39.053 75.12C38.8757 75.2693 38.7217 75.428 38.591 75.596C38.423 75.8013 38.2597 76.0347 38.101 76.296V81H36.981V75.092ZM46.6867 80.832C46.472 80.8973 46.248 80.9533 46.0147 81C45.7907 81.0467 45.5387 81.0887 45.2587 81.126C44.988 81.1633 44.7034 81.182 44.4047 81.182C43.938 81.182 43.504 81.1167 43.1027 80.986C42.7014 80.8553 42.3514 80.6453 42.0527 80.356C41.754 80.0667 41.516 79.6933 41.3387 79.236C41.1707 78.7693 41.0867 78.2 41.0867 77.528C41.0867 76.9213 41.1707 76.3893 41.3387 75.932C41.5067 75.4653 41.7354 75.078 42.0247 74.77C42.3234 74.4527 42.6687 74.2147 43.0607 74.056C43.462 73.8973 43.896 73.818 44.3627 73.818C44.82 73.818 45.2167 73.9067 45.5527 74.084C45.8887 74.2613 46.164 74.504 46.3787 74.812C46.6027 75.1107 46.766 75.4653 46.8687 75.876C46.9807 76.2773 47.0367 76.702 47.0367 77.15L46.8267 77.766H42.3047C42.3047 78.0553 42.342 78.3447 42.4167 78.634C42.4914 78.9233 42.6174 79.1847 42.7947 79.418C42.9814 79.6513 43.2194 79.8427 43.5087 79.992C43.8074 80.132 44.176 80.202 44.6147 80.202C44.8947 80.202 45.1514 80.188 45.3847 80.16C45.618 80.1227 45.8187 80.0853 45.9867 80.048C46.164 80.0013 46.3274 79.95 46.4767 79.894L46.6867 80.832ZM45.8747 76.87C45.8747 76.8047 45.8607 76.66 45.8327 76.436C45.8047 76.212 45.7394 75.9787 45.6367 75.736C45.534 75.4933 45.3754 75.2787 45.1607 75.092C44.946 74.896 44.6614 74.798 44.3067 74.798C43.9147 74.798 43.5927 74.882 43.3407 75.05C43.0887 75.2087 42.888 75.4 42.7387 75.624C42.5894 75.848 42.4867 76.0767 42.4307 76.31C42.3747 76.5433 42.3467 76.73 42.3467 76.87H45.8747ZM57.276 81.672C57.276 82.0173 57.2386 82.3533 57.164 82.68C57.0893 83.0067 56.9446 83.296 56.73 83.548C56.5246 83.8093 56.2306 84.0147 55.848 84.164C55.4746 84.3227 54.98 84.402 54.364 84.402C53.972 84.3927 53.6313 84.3693 53.342 84.332C53.0526 84.2947 52.7773 84.2387 52.516 84.164C52.2546 84.0987 52.0166 84.0193 51.802 83.926L52.096 82.946C52.46 83.1047 52.8286 83.226 53.202 83.31C53.5846 83.394 53.9253 83.436 54.224 83.436C54.5506 83.436 54.8353 83.4033 55.078 83.338C55.3206 83.2727 55.5213 83.1607 55.68 83.002C55.848 82.8527 55.9693 82.652 56.044 82.4C56.128 82.148 56.17 81.8353 56.17 81.462V80.44C55.974 80.5707 55.7686 80.692 55.554 80.804C55.3486 80.9067 55.1246 80.9953 54.882 81.07C54.6486 81.1447 54.42 81.182 54.196 81.182C53.328 81.182 52.642 80.8787 52.138 80.272C51.634 79.656 51.382 78.7413 51.382 77.528C51.382 76.828 51.4893 76.2447 51.704 75.778C51.928 75.302 52.208 74.9193 52.544 74.63C52.88 74.3407 53.2486 74.1353 53.65 74.014C54.0513 73.8833 54.434 73.818 54.798 73.818C55.274 73.818 55.708 73.86 56.1 73.944C56.5013 74.0187 56.8933 74.0793 57.276 74.126V81.672ZM54.322 80.202C54.5273 80.202 54.7373 80.1647 54.952 80.09C55.1666 80.0153 55.372 79.9267 55.568 79.824C55.7733 79.7213 55.974 79.6 56.17 79.46V74.994C56.058 74.966 55.9273 74.9333 55.778 74.896C55.6473 74.8773 55.498 74.8587 55.33 74.84C55.162 74.812 54.9846 74.798 54.798 74.798C54.406 74.798 54.07 74.868 53.79 75.008C53.51 75.148 53.2766 75.3393 53.09 75.582C52.9126 75.8247 52.782 76.1093 52.698 76.436C52.614 76.7627 52.572 77.108 52.572 77.472C52.572 77.7987 52.6046 78.1253 52.67 78.452C52.7446 78.7787 52.8566 79.0727 53.006 79.334C53.1553 79.5953 53.3373 79.8053 53.552 79.964C53.7666 80.1227 54.0233 80.202 54.322 80.202ZM59.3072 75.092C59.3072 74.8773 59.2838 74.5413 59.2372 74.084L60.2732 73.944L60.3852 74.966H60.3992C60.5672 74.7513 60.7305 74.5647 60.8892 74.406C61.0478 74.2473 61.2112 74.112 61.3792 74C61.5565 73.8787 61.7245 73.818 61.8832 73.818C62.0978 73.8087 62.3965 73.832 62.7792 73.888L62.5272 74.966C62.2192 74.91 62.0045 74.8867 61.8832 74.896C61.7245 74.896 61.5565 74.9707 61.3792 75.12C61.2018 75.2693 61.0478 75.428 60.9172 75.596C60.7492 75.8013 60.5858 76.0347 60.4272 76.296V81H59.3072V75.092ZM64.6029 77.514C64.6029 78.4193 64.8035 79.096 65.2049 79.544C65.6155 79.9827 66.1662 80.202 66.8569 80.202C67.5382 80.202 68.0702 79.9827 68.4529 79.544C68.8355 79.1053 69.0269 78.4473 69.0269 77.57C69.0269 76.6367 68.8215 75.9413 68.4109 75.484C68.0095 75.0267 67.4589 74.798 66.7589 74.798C66.0589 74.798 65.5222 75.0267 65.1489 75.484C64.7849 75.932 64.6029 76.6087 64.6029 77.514ZM63.4129 77.5C63.4129 76.7907 63.5249 76.2027 63.7489 75.736C63.9729 75.26 64.2575 74.882 64.6029 74.602C64.9482 74.3127 65.3169 74.112 65.7089 74C66.1102 73.8787 66.4882 73.818 66.8429 73.818C67.1789 73.818 67.5429 73.874 67.9349 73.986C68.3362 74.0887 68.7049 74.28 69.0409 74.56C69.3769 74.8307 69.6569 75.1993 69.8809 75.666C70.1049 76.1233 70.2169 76.7067 70.2169 77.416C70.2169 78.1533 70.1002 78.7647 69.8669 79.25C69.6429 79.7353 69.3582 80.1227 69.0129 80.412C68.6675 80.692 68.2942 80.888 67.8929 81C67.4915 81.1213 67.1182 81.182 66.7729 81.182C66.4182 81.182 66.0449 81.126 65.6529 81.014C65.2609 80.902 64.8969 80.7107 64.5609 80.44C64.2342 80.16 63.9589 79.782 63.7349 79.306C63.5202 78.83 63.4129 78.228 63.4129 77.5ZM76.0579 80.23H76.0299C75.9459 80.2953 75.8246 80.384 75.6659 80.496C75.5073 80.5987 75.3253 80.7013 75.1199 80.804C74.9146 80.9067 74.6859 80.9953 74.4339 81.07C74.1913 81.1447 73.9439 81.182 73.6919 81.182C73.3466 81.182 73.0526 81.1353 72.8099 81.042C72.5673 80.958 72.3713 80.8133 72.2219 80.608C72.0726 80.4027 71.9653 80.132 71.8999 79.796C71.8346 79.46 71.8019 79.04 71.8019 78.536V73.958H72.9219V78.368C72.9219 78.648 72.9266 78.9 72.9359 79.124C72.9453 79.348 72.9779 79.5393 73.0339 79.698C73.0899 79.8567 73.1786 79.9827 73.2999 80.076C73.4306 80.16 73.6126 80.202 73.8459 80.202C74.0886 80.202 74.3406 80.1507 74.6019 80.048C74.8633 79.9453 75.1013 79.8287 75.3159 79.698C75.5679 79.5487 75.8153 79.3807 76.0579 79.194V73.958H77.1779V80.09C77.1873 80.426 77.2106 80.7293 77.2479 81L76.1419 81.112L76.0579 80.23ZM79.2271 75.582C79.2271 75.246 79.2037 74.7467 79.1571 74.084L80.1931 73.944L80.3191 74.7C80.5057 74.5413 80.6971 74.4013 80.8931 74.28C81.0984 74.1493 81.3177 74.042 81.5511 73.958C81.7937 73.8647 82.0504 73.818 82.3211 73.818C82.7037 73.818 83.0631 73.8833 83.3991 74.014C83.7444 74.1447 84.0431 74.3547 84.2951 74.644C84.5564 74.9333 84.7617 75.3113 84.9111 75.778C85.0604 76.2353 85.1351 76.8 85.1351 77.472C85.1351 78.1533 85.0324 78.732 84.8271 79.208C84.6311 79.6747 84.3697 80.0573 84.0431 80.356C83.7257 80.6453 83.3617 80.8553 82.9511 80.986C82.5497 81.1167 82.1391 81.182 81.7191 81.182C81.2711 81.1727 80.8137 81.1167 80.3471 81.014V84.052L79.2271 84.192V75.582ZM81.7191 80.202C82.1111 80.202 82.4471 80.132 82.7271 79.992C83.0071 79.852 83.2357 79.6607 83.4131 79.418C83.5997 79.166 83.7351 78.8813 83.8191 78.564C83.9031 78.2373 83.9451 77.892 83.9451 77.528C83.9451 77.2013 83.9124 76.8747 83.8471 76.548C83.7911 76.2213 83.6931 75.932 83.5531 75.68C83.4224 75.4187 83.2451 75.2087 83.0211 75.05C82.7971 74.882 82.5217 74.798 82.1951 74.798C81.9524 74.798 81.7237 74.8447 81.5091 74.938C81.2944 75.022 81.0891 75.1293 80.8931 75.26C80.7064 75.3813 80.5244 75.5213 80.3471 75.68V79.978C80.4497 80.0153 80.5617 80.0527 80.6831 80.09C80.8137 80.118 80.9631 80.146 81.1311 80.174C81.3084 80.1927 81.5044 80.202 81.7191 80.202Z" fill="white"/>
<mask id="mask0_117_95175" style="mask-type:luminance" maskUnits="userSpaceOnUse" x="18" y="10" width="50" height="50">
<circle cx="43" cy="35" r="25" fill="white"/>
</mask>
<g mask="url(#mask0_117_95175)">
<rect x="16.4375" y="7.5" width="53.125" height="53.125" fill="#D3EFF8"/>
</g>
<rect x="29" y="23" width="28" height="20" fill="#0271CE"/>
<rect x="32" y="43" width="22" height="3" fill="#0271CE"/>
<rect x="32" y="25" width="22" height="16" fill="#E0F1FF"/>
</svg>
