<svg width="288" height="288" viewBox="0 0 288 288" fill="none" xmlns="http://www.w3.org/2000/svg">
<circle cx="144" cy="144" r="144" fill="#2D71D5"/>
<path fill-rule="evenodd" clip-rule="evenodd" d="M118.225 285.137C121.385 268.748 124.547 252.359 127.706 235.968C128.527 231.715 128.413 226.02 123.677 224.686C108.911 220.529 96.4325 210.642 90.3409 198.271C88.4234 194.374 82.5013 192.988 77.7923 194.135C73.0856 195.283 69.328 198.281 65.7641 201.186C67.7978 194.305 75.0951 188.84 83.2495 188.092C86.0168 184.053 82.0534 178.47 76.802 177.298C71.5506 176.124 66.0183 178.175 61.6312 180.939C61.2899 176.56 67.442 174.416 72.1026 172.697C76.7657 170.977 81.3174 165.544 77.342 162.822C75.6108 161.635 73.1485 161.847 70.9623 162.117C64.6407 162.899 58.3216 163.684 52 164.466C52.7191 160.058 59.3312 158.927 64.4567 158.586C69.5798 158.246 76.1968 156.084 75.6254 151.659C73.4294 134.612 78.1966 117.321 86.15 101.612C92.7403 88.5973 73.3471 75.5617 74.6182 61.3938C74.7175 60.297 75.0201 59.0954 76.0418 58.4411C77.262 57.6589 78.9689 57.9713 80.4192 58.3593C90.4039 61.0289 99.6623 65.7138 107.248 71.938C110.928 74.9599 116.86 72.9005 121.491 71.1096C138.575 64.5058 158.597 63.8222 176.226 69.239C192.147 74.1315 206.267 50.5329 222.045 55.761C218.017 67.2405 213.99 78.72 209.964 90.1995C208.853 93.3661 207.802 97.0024 209.821 99.8125C216.624 109.279 220.75 120.179 221.74 131.298C222.435 139.131 224.186 149.711 233.229 150.325C229.289 151.825 224.946 153.695 223.583 157.229C222.22 160.762 226.88 165.426 230.408 163.294C233.454 161.454 238.376 162.989 239.366 166.089C234.149 165.646 228.49 166.139 224.411 168.991C220.331 171.845 218.731 177.615 222.188 181.029C229.774 178.321 238.732 178.676 246 181.972C241.669 184.73 235.72 183.914 230.352 183.637C224.985 183.361 218.45 184.434 216.549 188.79C210.211 203.331 194.636 214.551 176.974 217.298C168.275 218.65 166.878 228.842 167.597 236.474C169.1 252.483 170.604 268.49 172.11 284.499C169.011 287.047 133.033 290.579 118.225 285.137Z" fill="white"/>
<path fill-rule="evenodd" clip-rule="evenodd" d="M130.189 128.328C132.386 132.693 132.63 138.336 130.819 142.939C129.858 145.382 126.609 145.298 124.976 143.41C123.346 141.525 122.918 138.667 122.603 136.003C122.315 133.591 122.068 131.048 122.848 128.794C123.631 126.538 125.816 124.766 127.762 125.591C128.838 126.048 129.607 127.172 130.189 128.328Z" fill="#00160A"/>
<path fill-rule="evenodd" clip-rule="evenodd" d="M172.11 284.934C163.607 266.205 160.767 245.564 163.953 225.625C155.941 233.242 141.158 234.542 131.551 228.472C133.849 248.088 129.137 268.279 118.225 285.573C121.385 269.153 124.547 252.733 127.706 236.311C128.527 232.05 128.413 226.344 123.677 225.008C108.911 220.843 96.4325 210.937 90.3409 198.543C88.4234 194.639 82.5013 193.25 77.7923 194.399C73.0856 195.549 69.328 198.553 65.7641 201.463C67.7978 194.569 75.0951 189.094 83.2495 188.344C86.0168 184.297 82.0534 178.704 76.802 177.53C71.5506 176.353 66.0183 178.408 61.6312 181.177C61.2899 176.79 67.442 174.643 72.1026 172.92C76.7657 171.197 81.3174 165.753 77.342 163.026C75.6108 161.837 73.1485 162.049 70.9623 162.32C64.6407 163.104 58.3216 163.89 52 164.673C52.7191 160.257 59.3312 159.125 64.4567 158.782C69.5798 158.442 76.1968 156.275 75.6254 151.842C73.4294 134.763 78.1966 117.439 86.15 101.7C92.7403 88.661 73.3471 75.6007 74.6182 61.4059C74.7175 60.307 75.0201 59.1031 76.0418 58.4476C77.262 57.6639 78.9689 57.977 80.4192 58.3657C90.4039 61.0403 99.6623 65.7341 107.248 71.9701C110.928 74.9977 116.86 72.9344 121.491 71.1401C138.575 64.5239 158.597 63.8389 176.226 69.266C192.147 74.1678 206.267 50.5245 222.045 55.7624C218.017 67.2637 213.99 78.765 209.964 90.2662C208.853 93.4388 207.802 97.082 209.821 99.8975C216.624 109.382 220.75 120.303 221.74 131.443C222.435 139.29 224.186 149.89 233.229 150.506C229.289 152.008 224.946 153.882 223.583 157.423C222.22 160.963 226.88 165.636 230.408 163.499C233.454 161.656 238.376 163.194 239.366 166.3C234.149 165.856 228.49 166.35 224.411 169.207C220.331 172.067 218.731 177.847 222.188 181.268C229.774 178.555 238.732 178.91 246 182.213C241.669 184.976 235.72 184.159 230.352 183.881C224.985 183.604 218.45 184.68 216.549 189.044C210.211 203.612 194.636 214.853 176.974 217.606C168.275 218.961 166.878 229.172 167.597 236.818C169.1 252.857 170.604 268.895 172.11 284.934ZM179.131 169.657C176.347 171.865 171.541 174.166 169.478 171.426C181.4 160.326 197.745 152.874 215.041 150.653C218.569 150.199 219.351 146.11 219.099 143.022C217.857 127.829 212.833 112.876 204.47 99.4836C203.216 102.299 199.246 103.953 195.931 103.039C205.819 90.1464 212.325 75.3129 214.816 59.9793C198.989 65.6732 184.927 75.0145 174.463 86.7868C173.005 82.2695 175.335 77.0358 179.913 74.5418C159.036 67.894 135.042 69.0034 115.097 77.54C115.618 80.3492 116.136 83.1583 116.654 85.9674C106.87 75.6827 94.1203 67.541 79.8962 62.4943C84.5206 77.4791 91.261 91.9723 99.9213 105.543C96.1613 106.249 92.0769 103.421 92.0333 100.082C84.1768 114.918 79.8575 131.157 79.4265 147.482C79.303 152.174 81.4797 158.524 86.8594 158.038C101.546 156.719 116.792 161.152 127.595 169.882C117.567 167.369 107.538 164.854 97.5099 162.341C93.193 161.259 88.2443 160.246 84.46 162.347C80.6782 164.451 81.1262 170.97 85.6174 171.046C97.3816 168.071 110.674 170.069 120.598 176.307C108.981 174.063 96.8344 173.92 85.1525 175.889C82.2399 181.99 92.135 186.766 99.747 186.735C107.357 186.703 116.886 185.991 120.581 191.765C111.25 191.344 101.919 190.922 92.5878 190.502C95.1493 204.93 109.441 217.183 126.096 219.232C129.275 219.623 131.36 222.19 133.725 224.075C143.136 231.563 161.205 226.476 163.757 215.62C185.431 215.042 206.073 202.533 214.16 185.073C203.168 186.428 192.174 187.783 181.179 189.136C183.753 184.829 189.866 183.177 195.425 182.675C200.986 182.171 206.865 182.339 211.794 180.053C216.724 177.765 219.927 171.733 216.397 167.97C202.662 172.16 188.924 176.351 175.187 180.541C179.758 174.628 186.966 170.296 194.948 168.657C200.514 167.514 206.429 167.628 211.756 165.819C217.082 164.012 221.84 159.248 220.334 154.462C205.153 155.303 190.365 160.757 179.131 169.657Z" fill="#00160A"/>
<path fill-rule="evenodd" clip-rule="evenodd" d="M165.926 120.006C164.064 119.927 161.814 119.628 161.125 118.195C165.657 113.95 175.474 115.302 178.1 120.531C174.042 120.355 169.984 120.182 165.926 120.006Z" fill="#00160A"/>
<path fill-rule="evenodd" clip-rule="evenodd" d="M157.807 202.557C159.161 204.29 158.879 207.014 157.607 208.812C156.335 210.612 154.3 211.63 152.255 212.225C149.281 213.095 145.756 213.08 143.491 210.854C140.212 207.633 141.792 201.076 145.822 199.031C149.852 196.989 154.956 198.906 157.807 202.557ZM146.056 203.548C145.03 205.573 147.205 208.068 149.369 208.073C151.533 208.077 153.399 206.548 155.074 205.095C152.871 202.538 148.944 201.9 146.122 203.64L146.056 203.548Z" fill="#00160A"/>
<path fill-rule="evenodd" clip-rule="evenodd" d="M170.522 142.034C168.061 143.151 164.949 141.36 164.019 139.026C163.088 136.692 163.712 134.11 164.429 131.716C164.838 130.351 165.385 128.859 166.752 128.161C168.587 127.226 171.04 128.295 172.107 129.932C173.172 131.57 173.225 133.565 173.248 135.462C173.278 137.934 172.979 140.921 170.522 142.034Z" fill="#00160A"/>
<path fill-rule="evenodd" clip-rule="evenodd" d="M118.651 202.893C127.272 203.86 136.362 200.229 141.14 193.909C145.915 187.59 146.146 178.892 141.709 172.387C139.362 168.948 135.79 164.66 138.633 161.515C140.075 159.917 142.638 159.51 144.971 159.399C147.519 159.279 150.23 159.42 152.359 160.645C154.488 161.869 155.729 164.491 154.434 166.405C149.317 173.962 150.102 184.215 156.32 191.117C162.54 198.018 173.798 201.129 183.457 198.616C185.223 198.155 188.12 198.311 187.771 199.885C187.685 200.267 187.381 200.583 187.07 200.862C181.612 205.765 172.155 204.965 165.125 201.933C158.593 199.113 152.989 194.688 149.131 189.305C145.677 194.428 142.114 199.663 136.828 203.42C131.542 207.175 124.086 209.202 117.751 206.989C116.014 206.384 114.214 204.566 115.47 203.358C116.22 202.633 117.537 202.767 118.651 202.893Z" fill="#00160A"/>
<path fill-rule="evenodd" clip-rule="evenodd" d="M134.392 117.925C134.791 119.016 133.048 119.677 131.748 119.799C129.279 120.031 126.812 120.264 124.343 120.496C122.439 120.675 119.702 120.188 119.911 118.525C123.303 115.404 129.288 114.751 133.451 117.051C133.847 117.269 134.25 117.536 134.392 117.925Z" fill="#00160A"/>
<circle cx="52.5" cy="55.5" r="0.5" fill="#D9D9D9"/>
</svg>
