<svg width="610" height="579" viewBox="0 0 610 579" fill="none" xmlns="http://www.w3.org/2000/svg">
<ellipse cx="305" cy="289.5" rx="305" ry="289.5" fill="#2D71D5"/>
<mask id="mask0_610_325" style="mask-type:alpha" maskUnits="userSpaceOnUse" x="0" y="0" width="610" height="579">
<ellipse cx="305" cy="289.5" rx="305" ry="289.5" fill="#2D71D5"/>
</mask>
<g mask="url(#mask0_610_325)">
<path fill-rule="evenodd" clip-rule="evenodd" d="M206.752 196.912C216.982 203.241 228.329 210.822 240.024 207.999C267.103 201.467 296.098 203.11 322.267 212.652C333.283 216.67 343.272 205.275 350.176 195.796C370.216 168.286 396.422 145.292 426.304 129C446.911 162.825 426.038 209.631 443.953 244.955C471.682 299.619 464.316 370.226 425.899 417.994C466.214 457.381 493.627 509.768 503 565.346C498.208 566.759 252.664 597.213 117.831 560.671C116.339 521.502 130.463 481.953 156.429 452.586C117.88 407.189 99.0731 345.583 105.695 286.394C106.387 280.234 107.274 273.664 104.526 268.11C90.1434 238.983 80.2366 207.654 75.2606 175.558C74.9637 173.641 74.7156 171.536 75.7304 169.883C77.0758 167.684 80.011 167.207 82.578 166.996C125.738 163.479 169.932 174.126 206.752 196.912Z" fill="white"/>
<path fill-rule="evenodd" clip-rule="evenodd" d="M82.578 166.996C125.738 163.479 169.932 174.126 206.752 196.912C216.982 203.241 228.329 210.822 240.024 207.999C267.103 201.467 296.098 203.11 322.267 212.652C333.283 216.67 343.272 205.275 350.176 195.796C370.216 168.286 396.422 145.292 426.304 129C446.911 162.825 426.038 209.631 443.953 244.955C471.682 299.619 464.316 370.226 425.899 417.994C466.214 457.381 493.627 509.768 503 565.346C498.208 566.759 495.063 560.501 493.905 555.642C483.562 512.211 463.019 471.246 434.4 436.978C427.699 428.954 416.747 420.64 407.908 426.221C337.669 470.573 248.631 483.964 168.455 462.241C155.226 458.659 145.834 474.722 141.591 487.752C133.668 512.057 125.75 536.366 117.831 560.671C116.339 521.502 130.463 481.953 156.429 452.586C117.88 407.189 99.0731 345.583 105.695 286.394C106.387 280.234 107.274 273.664 104.526 268.11C90.1434 238.983 80.2366 207.654 75.2606 175.558C74.9637 173.641 74.7156 171.536 75.7304 169.883C77.0758 167.684 80.011 167.207 82.578 166.996ZM257.628 244.812C242.381 258.808 229.809 275.709 220.786 294.335C215.456 276.476 218.343 256.335 228.479 240.693C214.772 245.819 202.077 253.648 191.347 263.6C191.354 248.724 198.92 234.044 211.025 225.4C205.783 225.554 200.54 225.705 195.297 225.859C200.758 219.086 208.451 214.144 216.881 211.991C178.268 184.454 129.861 170.961 82.5705 174.551C90.9102 223.841 110.822 271.135 140.242 311.552C127.674 306.41 117.399 295.91 112.535 283.233C107.142 334.041 120.078 386.598 148.431 429.1C153.708 437.015 159.612 444.697 167.271 450.338C179.982 459.696 196.263 462.564 211.98 464C274.837 469.739 339.311 456.382 394.716 426.142C405.363 420.328 415.8 413.819 424.241 405.107C435.407 393.58 442.578 378.679 447.189 363.304C459.287 322.962 454.154 277.757 433.318 241.155C429.555 252.385 425.793 263.611 422.028 274.841C420.442 279.576 413.395 284.522 412.049 279.711C430.739 235.427 434.746 185.089 423.302 138.407C380.622 166.733 344.858 205.399 319.948 250.156C318.9 239.731 321.58 228.971 327.39 220.251C300.447 240.892 277.092 266.208 258.692 294.726C255.347 278.332 254.986 261.333 257.628 244.812Z" fill="#00160A"/>
<path fill-rule="evenodd" clip-rule="evenodd" d="M176.228 502.714C175.405 494.885 175.589 485.685 181.794 480.844C187.243 476.59 194.986 477.597 201.788 478.815C212.597 480.746 223.406 482.678 234.215 484.614C242.66 486.121 251.694 487.572 259.549 484.114C265.814 481.355 272.993 484.309 279.837 484.37C285.425 484.418 290.818 482.505 296.076 480.619C312.207 474.827 328.341 469.039 344.472 463.248C347.437 462.184 350.737 461.121 353.653 462.308C358.088 464.116 359.08 469.836 359.422 474.613C359.813 480.051 360.204 485.493 360.595 490.935C361.072 497.58 361.504 504.518 358.9 510.651C356.292 516.781 349.621 521.742 343.171 520.077C326.515 515.781 309.568 512.602 292.487 510.565C289.048 510.155 284.572 510.399 283.441 513.673C280.848 521.178 270.114 519.976 262.282 518.653C244.321 515.62 225.187 520.351 210.71 531.401C206.832 534.359 203.209 537.79 198.736 539.729C194.264 541.672 188.54 541.778 184.992 538.433C182.568 536.148 181.61 532.75 180.832 529.514C178.716 520.694 177.175 511.737 176.228 502.714ZM257.26 496.464C235.462 492.326 213.559 488.752 191.577 485.741C188.108 485.268 184.879 488.132 183.737 491.439C182.594 494.75 183.034 498.373 183.538 501.838C184.643 509.441 185.984 517.014 187.552 524.534C188.044 526.891 188.615 529.353 190.212 531.153C191.813 532.949 194.786 533.761 196.654 532.243C208.568 522.561 222.677 515.593 237.605 512.019C242.096 510.944 246.76 510.133 250.729 507.776C254.697 505.42 257.888 501.038 257.26 496.464ZM319.302 479.619C307.701 482.817 295.373 486.459 287.575 495.622C285.203 498.407 284.715 504.334 288.372 504.195C306.603 503.507 324.963 506.352 342.131 512.527C345.78 513.838 349.895 511.223 351.62 507.75C353.345 504.277 353.289 500.226 353.195 496.347C353.018 489.045 352.842 481.739 352.665 474.433C352.635 473.264 352.469 471.862 351.417 471.343C350.714 470.997 349.88 471.197 349.125 471.407C339.184 474.143 329.243 476.883 319.302 479.619ZM262.609 506.728C263.112 508.445 263.845 510.174 265.202 511.343C268.532 514.207 274.128 512.155 276.36 508.374C278.589 504.593 278.363 499.891 277.856 495.532C277.243 490.304 269.437 488.598 265.484 492.066C261.526 495.539 261.12 501.68 262.609 506.728Z" fill="#00160A"/>
<path fill-rule="evenodd" clip-rule="evenodd" d="M392.484 366.54C382.833 365.359 372.862 366.87 363.993 370.858C361.704 371.888 359.475 368.505 360.467 366.201C361.46 363.894 364.053 362.796 366.421 361.962C380.112 357.144 397.505 354.761 407.273 365.502C403.094 368.362 397.513 367.156 392.484 366.54Z" fill="#00160A"/>
<path fill-rule="evenodd" clip-rule="evenodd" d="M287.116 417.716C287.342 425.173 280.28 431.231 272.94 432.562C265.6 433.892 258.132 431.705 250.992 429.536C244.779 427.65 242.844 418.923 246.125 413.319C249.402 407.712 256.035 404.942 262.447 403.893C267.724 403.029 273.331 403.119 278.183 405.37C283.031 407.625 286.955 412.372 287.116 417.716ZM252.698 419.505C253.047 421.738 255.663 422.711 257.858 423.249C262.124 424.293 266.521 425.346 270.862 424.703C275.206 424.057 279.536 421.294 280.667 417.051C274.218 410.38 262.695 409.467 255.272 415.033C253.825 416.119 252.42 417.717 252.698 419.505Z" fill="#00160A"/>
<path fill-rule="evenodd" clip-rule="evenodd" d="M175.435 379.675C162.556 379.705 149.672 379.731 136.793 379.762C134.075 379.769 130.246 378.341 131.163 375.785C144.614 369.937 160.229 369.227 174.158 373.831C176.721 374.677 179.509 378.134 177.123 379.397C176.612 379.667 176.01 379.675 175.435 379.675Z" fill="#00160A"/>
<path fill-rule="evenodd" clip-rule="evenodd" d="M317.957 330.659C318.69 326.055 319.956 320.726 324.214 318.832C328.315 317.009 333.294 319.61 335.655 323.428C338.015 327.247 338.409 331.914 338.748 336.391C332.937 336.92 327.127 337.45 321.317 337.984C318.209 338.266 317.465 333.741 317.957 330.659Z" fill="#00160A"/>
<path fill-rule="evenodd" clip-rule="evenodd" d="M368.394 385.669C366.522 385.282 364.59 384.869 363.031 383.764C361.907 382.967 361.027 381.832 360.539 380.547C373.667 375.011 390.387 380.028 398.302 391.871C388.332 389.804 378.365 387.736 368.394 385.669Z" fill="#00160A"/>
<path fill-rule="evenodd" clip-rule="evenodd" d="M341.379 305.652C344.716 300.315 353.037 302.814 358.069 306.595C363.034 310.323 367.472 314.743 371.227 319.685C371.062 322.59 366.548 321.929 364.105 320.35C356.528 315.45 348.955 310.553 341.379 305.652Z" fill="#00160A"/>
<path fill-rule="evenodd" clip-rule="evenodd" d="M159.255 393.764C164.566 391.949 169.876 390.134 175.187 388.319C177.318 387.59 179.588 386.853 181.775 387.39C183.959 387.928 185.842 390.299 185.004 392.389C174.571 396.286 164.002 399.826 153.325 403.002C151.63 401.54 151.976 398.654 153.445 396.967C154.915 395.279 157.136 394.49 159.255 393.764Z" fill="#00160A"/>
<path fill-rule="evenodd" clip-rule="evenodd" d="M203.317 326.803C205.343 328.175 206.388 330.561 207.328 332.82C208.583 335.823 209.861 339.062 209.18 342.246C208.504 345.429 204.93 348.172 202.006 346.744C198.691 345.128 195.091 351.059 191.825 349.345C190.28 348.533 189.983 346.489 189.87 344.748C189.566 340.062 189.318 335.093 191.539 330.959C193.76 326.825 199.428 324.176 203.317 326.803Z" fill="#00160A"/>
<path fill-rule="evenodd" clip-rule="evenodd" d="M162.795 324.71C167.689 312.675 181.722 305.144 194.455 307.714C196.184 308.064 198.322 309.361 197.71 311.014C197.387 311.89 196.413 312.311 195.534 312.634C184.623 316.659 173.709 320.684 162.795 324.71Z" fill="#00160A"/>
<path fill-rule="evenodd" clip-rule="evenodd" d="M227.8 385.523C225.056 385.869 221.565 385.606 220.531 383.039C222.373 381.573 224.575 380.013 226.872 380.547C229.164 381.081 229.995 385.083 227.691 385.568L227.8 385.523Z" fill="#00160A"/>
<path fill-rule="evenodd" clip-rule="evenodd" d="M282.719 381.581C285.605 381.099 287.124 377.04 285.267 374.782C283.407 372.523 279.134 373.237 278.104 375.977C277.078 378.713 279.832 382.062 282.719 381.581Z" fill="#00160A"/>
<path fill-rule="evenodd" clip-rule="evenodd" d="M218.603 401.149C214.559 400.563 209.361 397.932 210.605 394.039C215.058 391.472 220.583 393.67 225.672 394.407C230.761 395.143 237.627 392.359 236.789 387.285C237.638 389.423 238.488 391.562 239.341 393.697C244.52 392.317 249.353 389.66 253.295 386.034C255.524 383.981 257.516 380.456 255.535 378.164C250.95 372.857 255.93 362.909 262.928 363.397C269.922 363.886 273.474 374.424 268.197 379.047C266.829 380.246 268.204 382.444 269.625 383.583C279.521 391.528 293.317 394.354 305.543 390.934C311.008 389.405 317.991 387.157 321.463 391.648C304.029 404.239 277.533 402.048 262.402 386.77C253.885 400.661 234.726 403.483 218.603 401.149Z" fill="#00160A"/>
<path fill-rule="evenodd" clip-rule="evenodd" d="M300.763 377.254C302.443 378.009 302.706 380.734 301.198 381.798C299.695 382.861 297.215 381.707 297.061 379.873C297.696 378.509 299.169 377.577 300.673 377.592L300.763 377.254Z" fill="#00160A"/>
<path fill-rule="evenodd" clip-rule="evenodd" d="M237.443 379.175C239.202 381.877 244.366 378.517 242.607 375.811C240.845 373.109 235.684 376.473 237.443 379.175Z" fill="#00160A"/>
</g>
</svg>
