<svg width="229" height="166" viewBox="0 0 229 166" fill="none" xmlns="http://www.w3.org/2000/svg">
<path fill-rule="evenodd" clip-rule="evenodd" d="M216.945 121.516C200.369 154.941 128.634 183.713 57.3493 152.821C16.3473 135.053 0.837399 92.2362 0.0252779 72.432C-0.613373 56.8576 10.9984 40.2529 18.0084 33.1187C32.9088 17.9539 112.432 -0.934196 130.596 0.0358935C156.238 -0.683418 172.236 21.5688 192.419 22.6301C206.77 23.3844 249.745 55.38 216.945 121.516Z" fill="#F3F3F3"/>
<path fill-rule="evenodd" clip-rule="evenodd" d="M121.179 84.1885C121.501 83.2545 123.241 83.5775 123.205 84.5655C122.841 85.4935 121.115 85.1515 121.131 84.1555L121.179 84.1885Z" fill="#595959"/>
<path fill-rule="evenodd" clip-rule="evenodd" d="M105.473 88.4866C105.274 87.4906 103.371 87.8686 103.569 88.8656C103.767 89.8626 105.671 89.4836 105.473 88.4866Z" fill="#595959"/>
<path fill-rule="evenodd" clip-rule="evenodd" d="M108.173 90.1755C108.629 89.6125 109.433 89.3595 110.128 89.5595C110.356 89.8435 110.428 90.2445 110.313 90.5895C109.797 90.7995 109.281 91.0096 108.764 91.2196C108.546 90.8906 108.327 90.5605 108.108 90.2305L108.173 90.1755Z" fill="#595959"/>
<path fill-rule="evenodd" clip-rule="evenodd" d="M108.403 87.8105C108.056 87.5695 107.824 87.1715 107.783 86.7515C108.159 85.9695 109.491 85.9605 109.879 86.7375C109.522 87.2495 108.995 87.6405 108.402 87.8315L108.403 87.8105Z" fill="#595959"/>
<path fill-rule="evenodd" clip-rule="evenodd" d="M96.2698 90.3875C95.7538 91.0605 94.5899 90.1875 94.7299 89.3505C94.8689 88.5145 95.6509 87.9705 96.3139 87.4425C97.7269 86.3145 98.8658 84.8425 100.405 83.8925C101.944 82.9425 104.148 82.6695 105.432 83.9435C101.82 85.0985 98.5778 87.3795 96.2698 90.3875Z" fill="#595959"/>
<path fill-rule="evenodd" clip-rule="evenodd" d="M91.8559 81.2465C93.9489 79.2885 96.5519 77.8785 99.3359 77.1955C99.9299 77.0495 100.58 76.9416 101.136 77.1966C101.692 77.4526 102.044 78.2166 101.671 78.7026C98.1279 79.3316 94.7939 81.0866 92.2709 83.6506C91.8119 84.1176 90.9419 83.5546 90.9179 82.9006C90.8949 82.2466 91.3779 81.6935 91.8559 81.2465Z" fill="#595959"/>
<path fill-rule="evenodd" clip-rule="evenodd" d="M118.356 84.8246C118.293 84.3446 119.115 84.6066 119.361 85.0236C119.027 85.5226 118.692 86.0216 118.357 86.5206C117.662 86.2966 117.63 85.1056 118.312 84.8446L118.356 84.8246Z" fill="#595959"/>
<path fill-rule="evenodd" clip-rule="evenodd" d="M139.058 82.2146C136.03 81.2816 133.001 80.3485 129.973 79.4165C129.264 79.1985 128.489 78.9276 128.129 78.2796C132.31 77.3336 136.907 78.4526 140.185 81.2156C140.323 81.3326 140.465 81.4625 140.51 81.6365C140.67 82.2565 139.67 82.4026 139.058 82.2146Z" fill="#595959"/>
<path fill-rule="evenodd" clip-rule="evenodd" d="M118.999 87.6596C119.336 87.2556 120.053 87.2666 120.377 87.6806C120.702 88.0956 120.541 88.7936 120.067 89.0236C119.363 88.9546 118.759 88.3206 118.723 87.6136L118.999 87.6596Z" fill="#595959"/>
<path fill-rule="evenodd" clip-rule="evenodd" d="M136.92 88.7796C133.779 87.6766 130.637 86.5736 127.496 85.4716C127.239 85.3816 126.967 85.2806 126.803 85.0636C126.441 84.5886 126.86 83.8486 127.43 83.6706C128 83.4926 128.612 83.6916 129.175 83.8896C130.868 84.4826 132.56 85.0766 134.253 85.6696C135.702 86.1776 137.487 87.3526 136.92 88.7796Z" fill="#595959"/>
<path fill-rule="evenodd" clip-rule="evenodd" d="M116.031 84.8306C115.446 86.3626 116.19 88.1376 117.367 89.2796C119.084 90.9446 121.728 91.5835 124.015 90.8845C125.661 90.3815 127.656 89.3256 128.874 90.5406C125.244 94.1966 118.353 93.6815 115.308 89.5265C114.356 92.0075 112.178 93.9836 109.616 94.6886C107.055 95.3936 104.172 94.8116 102.085 93.1676C103.619 91.8966 105.893 92.8886 107.886 92.8996C109.993 92.9116 112.053 91.6226 112.963 89.7226C113.874 87.8216 113.587 85.4086 112.257 83.7736C110.901 82.1076 109.851 80.1925 109.175 78.1525C109.019 77.6795 108.882 77.1656 109.033 76.6916C109.343 75.7206 110.59 75.4906 111.607 75.4396C113.693 75.3346 115.782 75.2786 117.87 75.2696C118.874 75.2656 120.09 75.4015 120.512 76.3115C120.789 76.9115 120.589 77.6166 120.345 78.2316C119.71 79.8326 118.797 81.3226 117.659 82.6156C117.05 83.3076 116.36 83.9696 116.031 84.8306Z" fill="#595959"/>
<path fill-rule="evenodd" clip-rule="evenodd" d="M133.889 44.0495C130.802 43.4755 127.549 43.8215 124.652 45.0315C124.249 45.1995 123.785 45.3836 123.396 45.1856C122.922 44.9426 122.873 44.2325 123.168 43.7895C123.463 43.3455 123.98 43.1116 124.478 42.9206C129.602 40.9556 135.58 41.3576 140.395 43.9906C138.561 45.2676 136.086 44.4585 133.889 44.0495Z" fill="#595959"/>
<path fill-rule="evenodd" clip-rule="evenodd" d="M132.377 59.6565C132.116 60.1655 131.803 60.6905 131.293 60.9495C130.536 61.3345 129.554 60.9745 129.037 60.3005C128.521 59.6265 128.396 58.7245 128.459 57.8785C128.588 56.1495 130.084 54.2085 131.716 54.7945C133.466 55.4225 133.222 58.0005 132.377 59.6565Z" fill="#595959"/>
<path fill-rule="evenodd" clip-rule="evenodd" d="M102.41 56.6995C102.594 58.1695 101.944 59.8155 100.6 60.4385C99.2558 61.0605 97.3439 60.2175 97.1999 58.7425C97.1499 58.2295 97.2998 57.7205 97.4568 57.2295C97.9138 55.7975 98.8538 54.1136 100.352 54.2416C101.505 54.3396 102.267 55.5515 102.41 56.6995Z" fill="#595959"/>
<path fill-rule="evenodd" clip-rule="evenodd" d="M89.3179 46.1626C89.0789 45.3946 90.0089 44.8076 90.7769 44.5676C95.3029 43.1526 100.196 42.9286 104.832 43.9226C105.514 44.0696 106.265 44.2956 106.605 44.9046C106.945 45.5126 106.424 46.5096 105.762 46.2916C101.208 44.7956 96.1509 44.8796 91.6489 46.5256C90.8169 46.8306 89.5819 47.0086 89.3179 46.1626Z" fill="#595959"/>
<path fill-rule="evenodd" clip-rule="evenodd" d="M156.138 7.47752C155.694 14.5375 155.249 21.6185 155.666 28.6795C155.991 34.1765 156.837 39.6415 156.915 45.1475C157.138 61.0605 150.9 76.4735 142.413 89.9365C162.788 103.64 178.148 124.633 185.042 148.199C182.105 146.367 180.842 142.815 179.608 139.58C172.798 121.717 160.814 105.861 145.487 94.4345C143.289 92.7965 139.553 91.5575 138.338 94.0145C135.592 99.5665 131.533 104.464 126.587 108.193C124.793 109.545 122.784 110.882 121.382 112.58C121.395 112.719 121.4 112.859 121.4 113C121.4 115.872 119.072 118.2 116.2 118.2C114.248 118.2 112.547 117.125 111.658 115.534C98.7119 109.842 88.1779 98.7925 83.2239 85.5335C73.7579 92.0975 68.3009 103.268 66.2079 114.595C64.1159 125.922 65.0049 137.563 65.9019 149.046C64.9569 149.687 64.0719 148.14 63.9639 147.003C62.8719 135.505 62.2589 123.798 64.6449 112.498C67.0299 101.197 72.7309 90.2125 82.1499 83.5285C73.4089 64.4975 76.8079 41.1515 66.1449 23.1275C65.5119 22.0575 64.9789 20.3885 66.0869 19.8245C66.4979 19.6155 66.9889 19.6805 67.4439 19.7575C74.8789 21.0195 81.9639 24.2885 87.7479 29.1285C89.2399 30.3775 91.4719 29.4655 93.2159 28.6025C106.614 21.9675 122.613 20.7785 136.845 25.3615C140.42 18.4905 145.688 12.5085 152.05 8.09251C153.277 7.24051 155.034 6.47052 156.138 7.47752ZM110.179 100.337C114.764 100.739 119.436 101.136 123.93 100.138C134.209 97.8555 141.584 88.7615 146.293 79.3435C151.686 68.5605 154.707 56.5985 155.082 44.5465C151.757 47.2205 148.432 49.8955 145.107 52.5695C143.138 54.1525 140.987 56.1025 141.025 58.6295C141.079 62.2215 138.853 65.7485 135.587 67.2455C132.32 68.7435 128.196 68.1275 125.509 65.7415C122.477 63.0495 120.754 58.1745 116.715 57.8195C111.951 57.4005 109.681 63.5095 105.848 66.3685C100.963 70.0125 93.0789 67.2765 90.6409 61.6915C90.1769 60.6295 90.3429 58.7435 89.2799 58.0965C85.8919 56.0335 82.1499 55.9585 77.7339 56.1055C78.5209 65.7265 80.8499 75.2195 84.6049 84.1125C86.2689 88.0525 88.2969 91.9865 91.5629 94.7485C96.5939 99.0025 103.615 99.7605 110.179 100.337ZM137.781 27.5425C136.299 30.3705 133.813 33.9105 130.831 32.7685C132.746 31.1275 134.401 29.1835 135.714 27.0305C120.877 22.8005 104.441 24.4875 90.7719 31.6415C91.9489 33.0655 93.3959 34.2655 95.0129 35.1575C93.3019 36.7875 90.6619 34.7895 89.0429 33.0685C83.5319 27.2095 75.9999 23.2905 68.0399 22.1395C71.3059 27.3815 74.3259 37.7655 77.0989 53.2905C81.5929 54.3075 84.6139 54.8315 86.1619 54.8645C87.9419 54.9025 90.1119 54.7175 90.8899 53.1155C92.9469 48.8835 98.0969 46.4145 102.684 47.4625C107.272 48.5095 110.84 52.9695 110.856 57.6745C113.831 55.7255 117.812 55.4165 121.052 56.8825C121.39 52.8775 124.424 49.2395 128.302 48.1885C132.181 47.1365 136.636 48.7435 138.951 52.0285C139.958 53.4575 142.186 52.4075 143.521 51.2795C146.289 48.9425 149.056 46.6045 151.823 44.2675C153.383 42.9505 155.098 41.2415 154.771 39.2265C153.152 29.2485 152.95 19.0415 154.173 9.00752C147.324 13.7465 141.647 20.1655 137.781 27.5425ZM130.708 99.3835C124.048 103.908 115.257 103.119 107.264 102.151C102.897 101.622 98.3789 101.042 94.6249 98.7505C93.8539 98.2795 92.8429 97.7405 92.1299 98.2965C96.6049 103.882 102.4 108.402 108.906 111.383C109.873 111.826 111.298 112.087 111.757 111.128C112.811 108.92 116.008 108.103 117.992 109.533C119.606 110.697 121.837 109.579 123.432 108.39C127.013 105.719 130.282 102.629 133.15 99.2025C132.73 98.3715 131.479 98.8605 130.708 99.3835ZM92.9379 61.8935C94.9459 65.2825 99.5269 66.8805 103.207 65.4735C106.886 64.0675 109.235 59.8235 108.471 55.9585C107.708 52.0945 103.921 49.0615 99.9829 49.1615C96.0449 49.2605 92.4159 52.4805 91.8479 56.3785C91.5729 58.2685 91.9639 60.2505 92.9379 61.8935ZM123.528 56.0335C123.055 58.8335 124.151 61.7845 126.137 63.8135C127.596 65.3035 129.607 66.3565 131.692 66.2795C135.418 66.1415 138.128 62.5785 139.277 59.0315C139.577 58.1065 139.812 57.1235 139.63 56.1685C139.394 54.9285 138.493 53.9265 137.553 53.0845C135.192 50.9715 132.008 49.3705 128.921 50.0805C126.154 50.7165 124.001 53.2345 123.528 56.0335Z" fill="#595959"/>
</svg>
