<svg width="71" height="13" viewBox="0 0 71 13" fill="none" xmlns="http://www.w3.org/2000/svg">
<path d="M21 0L22.3471 4.49139H26.7063L23.1796 7.26722L24.5267 11.7586L21 8.98278L17.4733 11.7586L18.8204 7.26722L15.2937 4.49139H19.6529L21 0Z" fill="#383838"/>
<path d="M35.5 0L36.9593 4.49139H41.6819L37.8613 7.26722L39.3206 11.7586L35.5 8.98278L31.6794 11.7586L33.1387 7.26722L29.3181 4.49139H34.0407L35.5 0Z" fill="#383838"/>
<path d="M50 0L51.3471 4.49139H55.7063L52.1796 7.26722L53.5267 11.7586L50 8.98278L46.4733 11.7586L47.8204 7.26722L44.2937 4.49139H48.6529L50 0Z" fill="#383838"/>
<path d="M65 0.870223L66.1076 4.56321L66.1611 4.74139H66.3471H69.9845L67.025 7.07077L66.8913 7.17603L66.9402 7.33904L68.0601 11.0732L65.1546 8.78633L65 8.66463L64.8454 8.78633L61.9399 11.0732L63.0598 7.33904L63.1087 7.17603L62.975 7.07077L60.0155 4.74139H63.6529H63.8389L63.8924 4.56321L65 0.870223Z" stroke="#383838" stroke-width="0.5"/>
<path d="M6.5 0L7.95934 4.49139H12.6819L8.86126 7.26722L10.3206 11.7586L6.5 8.98278L2.6794 11.7586L4.13874 7.26722L0.318133 4.49139H5.04066L6.5 0Z" fill="#383838"/>
</svg>
