<svg width="142" height="26" viewBox="0 0 142 26" fill="none" xmlns="http://www.w3.org/2000/svg">
<path d="M41.5 0L44.3064 8.98278H53.3882L46.0409 14.5344L48.8473 23.5172L41.5 17.9656L34.1527 23.5172L36.9591 14.5344L29.6118 8.98278H38.6936L41.5 0Z" fill="#010101"/>
<path d="M70.5 0L73.3064 8.98278H82.3882L75.0409 14.5344L77.8473 23.5172L70.5 17.9656L63.1527 23.5172L65.9591 14.5344L58.6118 8.98278H67.6936L70.5 0Z" fill="#010101"/>
<path d="M99.5 0L102.306 8.98278H111.388L104.041 14.5344L106.847 23.5172L99.5 17.9656L92.1527 23.5172L94.9591 14.5344L87.6118 8.98278H96.6936L99.5 0Z" fill="#010101"/>
<path d="M129.5 0L132.306 8.98278H141.388L134.041 14.5344L136.847 23.5172L129.5 17.9656L122.153 23.5172L124.959 14.5344L117.612 8.98278H126.694L129.5 0Z" fill="#010101"/>
<path d="M12.5 0L15.3064 8.98278H24.3882L17.0409 14.5344L19.8473 23.5172L12.5 17.9656L5.15268 23.5172L7.95911 14.5344L0.611794 8.98278H9.69357L12.5 0Z" fill="#010101"/>
</svg>
