<svg width="142" height="26" viewBox="0 0 142 26" fill="none" xmlns="http://www.w3.org/2000/svg">
<path d="M41.5 0L44.3064 8.98278H53.3882L46.0409 14.5344L48.8473 23.5172L41.5 17.9656L34.1527 23.5172L36.9591 14.5344L29.6118 8.98278H38.6936L41.5 0Z" fill="#201D1D"/>
<path d="M70.5 0L73.3064 8.98278H82.3882L75.0409 14.5344L77.8473 23.5172L70.5 17.9656L63.1527 23.5172L65.9591 14.5344L58.6118 8.98278H67.6936L70.5 0Z" fill="#201D1D"/>
<path d="M99.5 1.67668L101.829 9.13188L101.939 9.48278H102.306H109.897L103.739 14.1355L103.459 14.3477L103.564 14.6835L105.905 22.1788L99.8014 17.5666L99.5 17.3389L99.1986 17.5666L93.0947 22.1788L95.4364 14.6835L95.5413 14.3477L95.2605 14.1355L89.1029 9.48278H96.6936H97.0612L97.1708 9.13188L99.5 1.67668Z" stroke="black"/>
<path d="M129.5 1.67668L131.829 9.13188L131.939 9.48278H132.306H139.897L133.739 14.1355L133.459 14.3477L133.564 14.6835L135.905 22.1788L129.801 17.5666L129.5 17.3389L129.199 17.5666L123.095 22.1788L125.436 14.6835L125.541 14.3477L125.261 14.1355L119.103 9.48278H126.694H127.061L127.171 9.13188L129.5 1.67668Z" stroke="black"/>
<path d="M12.5 0L15.3064 8.98278H24.3882L17.0409 14.5344L19.8473 23.5172L12.5 17.9656L5.15268 23.5172L7.95911 14.5344L0.611794 8.98278H9.69357L12.5 0Z" fill="#201D1D"/>
</svg>
